# xmcd
#
# Track frame offsets:
#	150
#	21270
#	32822
#	49402
#	69722
#	85240
#	94412
#	109772
#	122637
#	136820
#
# Disc length: 2009 seconds
#
# Revision: 4
# Processed by: cddbd v1.5.2PL0 Copyright (c) Steve Scherf et al.
# Submitted via: MusicManager 7.3.0.0 
#
DISCID=8b07d70a
DTITLE=Various Artist - New Country, Volume 4, Number 4
DYEAR=1997
DGENRE=
TTITLE0=Gary Allan - Wake Up Screaming
TTITLE1=Wanda Jackson - I May Never Get to Heaven
TTITLE2=Front Range - Under the Influence of Love
TTITLE3=Diamond Rio - Walking in Jerusalem
TTITLE4=The Burns Sisters - Dance Upon This Earth
TTITLE5=Tex Williams and His Western Caravan - The Campbells Are Coming
TTITLE6=The Vidalias - Thunder and Rain
TTITLE7=Richard Greene and The Grass Is Greener - With Body and Soul
TTITLE8=Rick Shea - Sycamore Grove
TTITLE9=Tony Furtado - Waterslide
EXTD=
EXTT0=
EXTT1=
EXTT2=
EXTT3=
EXTT4=
EXTT5=
EXTT6=
EXTT7=
EXTT8=
EXTT9=
PLAYORDER=
